<?xml version="1.0" encoding="UTF-8" standalone="no"?>
<!-- Created with Inkscape (http://www.inkscape.org/) -->

<svg
   version="1.1"
   id="svg1"
   width="1024"
   height="1024"
   viewBox="0 0 1024 1024"
   sodipodi:docname="logo.svg"
   xml:space="preserve"
   inkscape:version="1.4.2 (ebf0e940, 2025-05-08)"
   xmlns:inkscape="http://www.inkscape.org/namespaces/inkscape"
   xmlns:sodipodi="http://sodipodi.sourceforge.net/DTD/sodipodi-0.dtd"
   xmlns="http://www.w3.org/2000/svg"
   xmlns:svg="http://www.w3.org/2000/svg"><defs
     id="defs1" /><sodipodi:namedview
     id="namedview1"
     pagecolor="#ffffff"
     bordercolor="#000000"
     borderopacity="0.25"
     inkscape:showpageshadow="2"
     inkscape:pageopacity="0.0"
     inkscape:pagecheckerboard="0"
     inkscape:deskcolor="#d1d1d1"
     inkscape:zoom="0.70710678"
     inkscape:cx="250.3158"
     inkscape:cy="526.79455"
     inkscape:window-width="3440"
     inkscape:window-height="1318"
     inkscape:window-x="0"
     inkscape:window-y="30"
     inkscape:window-maximized="1"
     inkscape:current-layer="g1" /><g
     inkscape:groupmode="layer"
     inkscape:label="Image"
     id="g1"><path
       style="fill:#16a34a"
       d="m 248.8887,992.36279 c 8.04249,-12.21306 18.66201,-28.08289 23.59894,-35.26629 4.93692,-7.18339 15.20811,-22.22122 22.82486,-33.41739 7.61675,-11.19617 17.95367,-26.37832 22.97093,-33.73811 5.01726,-7.35978 14.66886,-21.54735 21.448,-31.52791 6.77913,-9.98057 18.57615,-27.17616 26.21559,-38.21241 7.63944,-11.03626 18.53935,-26.93831 24.22201,-35.33789 5.68267,-8.39959 16.08436,-23.65278 23.11487,-33.89599 7.03051,-10.24322 18.04618,-26.36016 24.47927,-35.81543 6.43309,-9.45528 14.39216,-21.05948 17.68684,-25.78711 3.29467,-4.72764 12.42552,-18.05098 20.29078,-29.60742 24.86621,-36.53601 75.93077,-111.31222 105.00765,-153.76758 7.19526,-10.50586 17.19283,-25.11856 22.21682,-32.47266 29.96776,-43.86672 51.10279,-74.80023 67.21248,-98.37305 10.0516,-14.7082 22.08079,-32.32939 26.73154,-39.1582 15.85932,-23.2866 26.57073,-38.83262 54.94815,-79.74902 4.91825,-7.09146 12.12563,-17.54348 16.01639,-23.22672 3.89076,-5.68324 7.20545,-10.19599 7.36597,-10.02832 0.16053,0.16766 1.61789,9.33033 3.23857,20.36148 45.46576,309.46116 -19.42328,571.68368 -165.15256,667.39658 -35.58755,23.37339 -90.86688,44.63898 -107.15987,41.22369 -40.76833,-8.54576 -83.8788,-28.35639 -118.96016,-54.66595 -14.01482,-10.51054 -11.10311,-10.3837 -21.11049,-0.91965 -4.58247,4.33367 -13.6483,12.60703 -20.14629,18.38526 -6.498,5.77822 -12.27611,10.94488 -12.84026,11.48148 -0.56415,0.53659 -10.91078,9.74468 -22.99252,20.46242 -12.08174,10.71774 -26.47954,23.6048 -31.99512,28.63791 -5.51557,5.03312 -12.91482,11.64321 -16.44278,14.68909 -3.52795,3.04589 -10.96025,9.81226 -16.51621,15.0364 -5.55596,5.2241 -10.28047,9.4984 -10.49892,9.4984 -0.21845,0 6.18304,-9.9925 14.22552,-22.20561 z M 525.00879,880.36707 c 115.724,-33.52469 193.04556,-189.14151 202.05367,-406.65176 2.76698,-66.81158 2.13729,-68.49471 -15.77248,-42.15949 -8.90746,13.09786 -19.62216,28.75683 -23.81045,34.7977 -4.1883,6.04086 -11.85593,17.21528 -17.03919,24.83203 -5.18327,7.61674 -15.52803,22.74712 -22.98838,33.62305 -7.46035,10.87593 -23.01954,33.5759 -34.57598,50.44437 -11.55645,16.86847 -27.83816,40.63365 -36.18157,52.81152 -8.34342,12.17786 -19.41688,28.50804 -24.6077,36.28928 -5.19081,7.78125 -11.07213,16.37695 -13.0696,19.10156 -1.99747,2.72462 -9.17379,13.11977 -15.94738,23.10033 -6.77358,9.98057 -18.71565,27.38687 -26.53792,38.68067 -7.82227,11.2938 -21.72599,31.70859 -30.89716,45.36621 -9.17117,13.65762 -21.16818,31.44045 -26.66003,39.5174 -11.48663,16.89358 -11.58107,14.82009 1.04756,23.00098 18.14763,11.75612 35.86765,20.07468 57.28934,26.89415 12.9773,4.13124 14.58132,4.15163 27.69727,0.352 z M 304.95054,812.70889 c -3.36641,-5.32968 -7.92458,-12.48394 -10.12926,-15.89834 -45.40952,-70.32599 -77.21644,-176.27757 -88.73884,-295.59668 -2.65333,-27.47626 -3.22936,-35.57115 -4.99531,-70.19825 -2.3126,-45.34594 1.20408,-129.17982 7.75236,-184.80761 0.74202,-6.30352 1.6249,-14.68433 1.96195,-18.62403 0.60007,-7.01413 4.4019,-34.00124 6.1219,-43.45605 0.4778,-2.62647 1.39511,-8.10623 2.03846,-12.17725 1.48683,-9.40839 0.5676,-9.98594 12.92243,8.11902 17.25909,25.29174 45.61057,67.13894 64.86773,95.74573 9.90109,14.7082 21.07071,31.25493 24.82138,36.77051 3.75067,5.51557 16.41447,24.15515 28.14179,41.42127 14.48466,21.32577 21.55598,30.97351 22.05081,30.08496 0.40063,-0.71939 1.1706,-3.67181 1.71105,-6.56092 22.33452,-119.39612 79.54278,-271.57512 132.03619,-351.227828 8.51791,-12.924951 7.75024,-12.826305 14.88159,-1.912309 20.32931,31.112478 43.51994,76.466867 62.72519,122.672977 14.57064,35.05561 18.88864,46.54547 30.26019,80.51989 6.41745,19.1732 12.02454,35.24793 12.46021,35.72162 0.44804,0.48715 6.5166,-4.71134 13.97052,-11.96753 7.24811,-7.05584 22.63365,-21.82791 34.1901,-32.82683 19.8251,-18.86866 27.28339,-26.02842 57.30468,-55.01092 6.82881,-6.59252 16.48971,-15.82266 21.46867,-20.51142 8.96648,-8.44388 25.80881,-24.65404 50.53515,-48.638314 7.04008,-6.828809 12.44371,-11.771338 12.00805,-10.983399 -1.967,3.557523 -28.57279,43.439373 -48.10461,72.108403 -11.80988,17.33466 -27.29904,40.1219 -34.42035,50.6383 -20.21686,29.85524 -79.33672,116.55416 -100.55543,147.4639 -20.30155,29.57372 -30.50033,44.49675 -35.95215,52.6058 -3.00187,4.46499 -10.3605,15.20962 -16.35252,23.87696 -5.99202,8.66733 -17.36285,25.29499 -25.2685,36.95035 -23.58574,34.7726 -32.82611,48.30248 -64.45296,94.37289 -16.58796,24.16348 -33.16564,48.35875 -36.83928,53.76727 -3.67364,5.40852 -20.38217,29.90628 -37.13007,54.43945 -16.74789,24.53318 -34.55152,50.62277 -39.56362,57.97687 -5.0121,7.3541 -11.62778,17.02427 -14.70151,21.48926 -3.07374,4.46499 -11.91678,17.38749 -19.65122,28.71668 -7.73444,11.32918 -16.40412,24.00784 -19.26595,28.1748 -2.86183,4.16696 -6.43043,9.39165 -7.93022,11.61042 -1.49978,2.21877 -3.02635,4.2156 -3.39236,4.4374 -0.36602,0.22181 -3.41983,-3.95737 -6.78624,-9.28705 z m 21.99757,-128.94082 c 3.23319,-4.80149 8.97914,-13.24273 12.76878,-18.7583 28.87239,-42.02189 70.20498,-103.0898 70.20498,-103.72618 0,-0.43192 -20.04558,-30.30242 -39.02989,-58.15957 -7.87558,-11.55644 -29.03368,-42.93076 -47.018,-69.7207 -66.46746,-99.01178 -58.04297,-90.88107 -58.13827,-56.11084 -0.3378,123.24471 17.69455,233.96538 51.14167,314.01562 1.82391,4.36523 2.28809,4.0177 10.07073,-7.54003 z M 464.5515,482.58984 c 7.07924,-10.24321 22.55106,-32.80693 34.38182,-50.1416 11.83076,-17.33467 33.38967,-48.87039 47.90869,-70.07939 14.51902,-21.209 26.39822,-39.31893 26.39822,-40.24428 0,-13.0132 -44.99037,-141.1418 -58.52429,-166.67201 -1.5067,-2.84221 -1.5067,-2.84221 -4.06962,2.88826 -4.38562,9.80585 -14.65782,35.54289 -21.15617,53.00684 -3.42058,9.19262 -8.06445,21.65639 -10.3197,27.69726 -10.72364,28.72402 -32.07047,105.22443 -39.17652,140.39649 -5.94443,29.4225 -13.83573,77.36555 -13.83573,84.05801 0,1.55624 3.90439,8.25191 10.6005,18.17889 5.83027,8.64339 11.30719,16.87851 12.17092,18.30028 0.86373,1.42177 1.83595,2.28134 2.16047,1.91016 0.32453,-0.37119 6.38216,-9.05569 13.46141,-19.29891 z"
       id="path3" /></g></svg>
